nColumns=19
nRows=125
DataType=double
version=3
OpenSimVersion=4.1
endheader
time	ground_force_calcn_r_vx	ground_force_calcn_r_vy	ground_force_calcn_r_vz	ground_force_calcn_r_px	ground_force_calcn_r_py	ground_force_calcn_r_pz	ground_force_calcn_r_mx	ground_force_calcn_r_my	ground_force_calcn_r_mz	ground_force_calcn_l_vx	ground_force_calcn_l_vy	ground_force_calcn_l_vz	ground_force_calcn_l_px	ground_force_calcn_l_py	ground_force_calcn_l_pz	ground_force_calcn_l_mx	ground_force_calcn_l_my	ground_force_calcn_l_mz
4.39	0	0	0	0	0	0	0	0	0	0	0	0	0	0	0	0	0	0
4.395	0	0	0	0	0	0	0	0	0	0	0	0	0	0	0	0	0	0
4.4	0	0	0	0	0	0	0	0	0	0	0	0	0	0	0	0	0	0
4.405	0	0	0	0	0	0	0	0	0	0	0	0	0	0	0	0	0	0
4.41	0	0	0	0	0	0	0	0	0	0	0	0	0	0	0	0	0	0
4.415	0	0	0	0	0	0	0	0	0	0	0	0	0	0	0	0	0	0
4.42	0	0	0	0	0	0	0	0	0	0	0	0	0	0	0	0	0	0
4.425	0	0	0	0	0	0	0	0	0	0	0	0	0	0	0	0	0	0
4.43	0	0	0	0	0	0	0	0	0	-63.5245	121.655	-2.37856	1.13922	0	-0.43271	-0.778157	1.49024	-0.0291367
4.435	0	0	0	0	0	0	0	0	0	-160.252	337.878	34.3125	0.973438	0	-0.46922	-0.0481994	0.101625	0.0103203
4.44	0	0	0	0	0	0	0	0	0	-271.638	655.72	97.3469	0.993164	0	-0.442438	-0.401233	0.968555	0.14379
4.445	0	0	0	0	0	0	0	0	0	-358.263	1044.36	189.601	1.0004	0	-0.420363	-1.61853	4.71814	0.856564
4.45	0	0	0	0	0	0	0	0	0	-391.205	1476.72	282.499	1.00289	0	-0.400774	-1.25424	4.7345	0.905721
4.455	0	0	0	0	0	0	0	0	0	-391.143	1941.27	332.872	0.993939	0	-0.384174	2.32786	-11.5533	-1.98107
4.46	0	0	0	0	0	0	0	0	0	-394.094	2394.23	307.525	0.972696	0	-0.372142	6.41281	-38.9596	-5.00413
4.465	0	0	0	0	0	0	0	0	0	-394.041	2760.37	196.624	0.950382	0	-0.365591	7.98859	-55.9623	-3.98625
4.47	0	0	0	0	0	0	0	0	0	-391.358	2994.83	31.5535	0.928947	0	-0.363312	6.71301	-51.3706	-0.541241
4.475	0	0	0	0	0	0	0	0	0	-390.64	3101.51	-131.206	0.903803	0	-0.363886	3.64761	-28.9604	1.22514
4.48	0	0	0	0	0	0	0	0	0	-366.575	3115.78	-234.729	0.874199	0	-0.36542	0.608384	-5.17108	0.389567
4.485	0	0	0	0	0	0	0	0	0	-305.693	3087.8	-252.914	0.839173	0	-0.365973	-0.420947	4.25199	-0.34827
4.49	0	0	0	0	0	0	0	0	0	-211.145	3045.72	-202.973	0.799711	0	-0.365187	0.064949	-0.936878	0.0624355
4.495	0	0	0	0	0	0	0	0	0	-86.9035	2993.01	-132.442	0.761663	0	-0.364093	0.240763	-8.29204	0.366927
4.5	0	0	0	0	0	0	0	0	0	51.5862	2921.36	-83.3383	0.727382	0	-0.36334	-0.127238	-7.20558	0.205555
4.505	0	0	0	0	0	0	0	0	0	185.942	2813.39	-67.0875	0.695195	0	-0.362767	0.0255585	0.386711	-0.00922143
4.51	0	0	0	0	0	0	0	0	0	309.995	2651.42	-63.9638	0.663949	0	-0.36213	0.522867	4.47214	-0.107888
4.515	0	0	0	0	0	0	0	0	0	418.972	2428.93	-45.1393	0.630711	0	-0.361718	-0.295818	-1.71496	0.0318709
4.52	0	0	0	0	0	0	0	0	0	502.915	2141.69	0.402996	0.589757	0	-0.363205	-4.81102	-20.488	-0.00385518
4.525	0	0	0	0	0	0	0	0	0	558.599	1791.08	56.271	0.535242	0	-0.369814	-15.2322	-48.8402	-1.53443
4.53	0	0	0	0	0	0	0	0	0	582.464	1401.66	91.1024	0.460227	0	-0.385787	-30.982	-74.5558	-4.84585
4.535	0	0	0	0	0	0	0	0	0	570.553	1017.06	77.7007	0.358031	0	-0.410182	-41.9714	-74.818	-5.71587
4.54	0	0	0	0	0	0	0	0	0	523.307	679.878	9.4443	0.224797	0	-0.415656	-24.6504	-32.0257	-0.444875
4.545	0	0	0	0	0	0	0	0	0	440.635	413.788	-88.342	0.0935831	0	-0.321601	32.3829	30.4099	-6.49238
4.55	0	0	0	0	0	0	0	0	0	332.982	217.854	-165.965	0.0856712	0	-0.0656722	81.4289	53.275	-40.5857
4.555	0	0	0	0	0	0	0	0	0	221.823	84.4599	-177.519	0.836112	0	0.388224	64.9718	24.7383	-51.9953
4.56	0	0	0	0	0	0	0	0	0	0	0	0	0	0	0	0	0	0
4.565	0	0	0	0	0	0	0	0	0	0	0	0	0	0	0	0	0	0
4.57	0	0	0	0	0	0	0	0	0	0	0	0	0	0	0	0	0	0
4.575	0	0	0	0	0	0	0	0	0	0	0	0	0	0	0	0	0	0
4.58	0	0	0	0	0	0	0	0	0	0	0	0	0	0	0	0	0	0
4.585	0	0	0	0	0	0	0	0	0	0	0	0	0	0	0	0	0	0
4.59	0	0	0	0	0	0	0	0	0	0	0	0	0	0	0	0	0	0
4.595	0	0	0	0	0	0	0	0	0	0	0	0	0	0	0	0	0	0
4.6	0	0	0	0	0	0	0	0	0	0	0	0	0	0	0	0	0	0
4.605	0	0	0	0	0	0	0	0	0	0	0	0	0	0	0	0	0	0
4.61	0	0	0	0	0	0	0	0	0	0	0	0	0	0	0	0	0	0
4.615	0	0	0	0	0	0	0	0	0	0	0	0	0	0	0	0	0	0
4.62	0	0	0	0	0	0	0	0	0	0	0	0	0	0	0	0	0	0
4.625	0	0	0	0	0	0	0	0	0	0	0	0	0	0	0	0	0	0
4.63	0	0	0	0	0	0	0	0	0	0	0	0	0	0	0	0	0	0
4.635	0	0	0	0	0	0	0	0	0	0	0	0	0	0	0	0	0	0
4.64	0	0	0	0	0	0	0	0	0	0	0	0	0	0	0	0	0	0
4.645	0	0	0	0	0	0	0	0	0	0	0	0	0	0	0	0	0	0
4.65	0	0	0	0	0	0	0	0	0	0	0	0	0	0	0	0	0	0
4.655	0	0	0	0	0	0	0	0	0	0	0	0	0	0	0	0	0	0
4.66	0	0	0	0	0	0	0	0	0	0	0	0	0	0	0	0	0	0
4.665	-55.5999	14.8603	-8.06082	1.29095	0	-0.347657	-1.29232	0.345403	-0.18736	0	0	0	0	0	0	0	0	0
4.67	-108.799	136.525	-30.2843	1.16868	0	-0.256199	-0.580769	0.728766	-0.161657	0	0	0	0	0	0	0	0	0
4.675	-187.531	348.409	-74.3607	1.04558	0	-0.25342	-1.15728	2.15009	-0.458892	0	0	0	0	0	0	0	0	0
4.68	-278.56	649.293	-139.409	1.04852	0	-0.264912	-1.89713	4.42199	-0.949441	0	0	0	0	0	0	0	0	0
4.685	-341.386	999.988	-212.056	1.05092	0	-0.273576	-1.45404	4.25916	-0.903192	0	0	0	0	0	0	0	0	0
4.69	-342.431	1370.78	-261.843	1.0495	0	-0.282395	-1.10001	4.40342	-0.841132	0	0	0	0	0	0	0	0	0
4.695	-310.909	1760.55	-249.2	1.03842	0	-0.290566	-2.90679	16.4599	-2.32985	0	0	0	0	0	0	0	0	0
4.7	-309.924	2141.66	-153.525	1.0201	0	-0.295197	-5.21503	36.0372	-2.58333	0	0	0	0	0	0	0	0	0
4.705	-366.461	2455.83	4.43091	1.00409	0	-0.296506	-6.53687	43.8066	0.0790378	0	0	0	0	0	0	0	0	0
4.71	-461.46	2670.94	178.443	0.991006	0	-0.295791	-5.83993	33.8016	2.25825	0	0	0	0	0	0	0	0	0
4.715	-535.4	2797.48	325.278	0.975855	0	-0.294322	-3.11693	16.2861	1.89367	0	0	0	0	0	0	0	0	0
4.72	-535.997	2859.76	415.577	0.95242	0	-0.293696	-0.767923	4.09718	0.595397	0	0	0	0	0	0	0	0	0
4.725	-458.123	2876.06	436.768	0.916639	0	-0.294408	0.243382	-1.52793	-0.232037	0	0	0	0	0	0	0	0	0
4.73	-327.534	2861.63	396.384	0.871814	0	-0.295721	0.797822	-6.97049	-0.965529	0	0	0	0	0	0	0	0	0
4.735	-180.642	2833.53	321.789	0.826754	0	-0.296811	0.838375	-13.1506	-1.49345	0	0	0	0	0	0	0	0	0
4.74	-42.6185	2787.09	247.996	0.787855	0	-0.297114	0.249018	-16.2848	-1.44903	0	0	0	0	0	0	0	0	0
4.745	79.8326	2702.93	193.389	0.755332	0	-0.296703	-0.381418	-12.9139	-0.923959	0	0	0	0	0	0	0	0	0
4.75	195.472	2574.23	149.439	0.727104	0	-0.295583	-0.147426	-1.9415	-0.112708	0	0	0	0	0	0	0	0	0
4.755	313.712	2403.64	91.7445	0.700062	0	-0.293817	2.12566	16.2866	0.621645	0	0	0	0	0	0	0	0	0
4.76	429.521	2181.2	12.3539	0.669008	0	-0.290816	8.02699	40.7627	0.230873	0	0	0	0	0	0	0	0	0
4.765	525.276	1887.73	-69.0693	0.627173	0	-0.285063	19.6921	70.7691	-2.58934	0	0	0	0	0	0	0	0	0
4.77	576.95	1522.47	-110.856	0.565945	0	-0.274345	35.6321	94.0267	-6.84641	0	0	0	0	0	0	0	0	0
4.775	573.458	1114.95	-80.3691	0.470444	0	-0.260837	44.1401	85.82	-6.18616	0	0	0	0	0	0	0	0	0
4.78	522.655	715.687	18.2809	0.318498	0	-0.269807	22.1746	30.3644	0.7756	0	0	0	0	0	0	0	0	0
4.785	440.839	379.985	139.556	0.145292	0	-0.40534	-42.5636	-36.6881	-13.4744	0	0	0	0	0	0	0	0	0
4.79	340.469	146.454	219.557	0.38764	0	-0.752274	-69.1332	-29.7379	-44.5816	0	0	0	0	0	0	0	0	0
4.795	234.438	13.6249	214.05	1.00585	0	-1.04975	-10.5456	-0.612882	-9.62848	0	0	0	0	0	0	0	0	0
4.8	0	0	0	0	0	0	0	0	0	0	0	0	0	0	0	0	0	0
4.805	0	0	0	0	0	0	0	0	0	0	0	0	0	0	0	0	0	0
4.81	0	0	0	0	0	0	0	0	0	0	0	0	0	0	0	0	0	0
4.815	0	0	0	0	0	0	0	0	0	0	0	0	0	0	0	0	0	0
4.82	0	0	0	0	0	0	0	0	0	0	0	0	0	0	0	0	0	0
4.825	0	0	0	0	0	0	0	0	0	0	0	0	0	0	0	0	0	0
4.83	0	0	0	0	0	0	0	0	0	0	0	0	0	0	0	0	0	0
4.835	0	0	0	0	0	0	0	0	0	0	0	0	0	0	0	0	0	0
4.84	0	0	0	0	0	0	0	0	0	0	0	0	0	0	0	0	0	0
4.845	0	0	0	0	0	0	0	0	0	0	0	0	0	0	0	0	0	0
4.85	0	0	0	0	0	0	0	0	0	0	0	0	0	0	0	0	0	0
4.855	0	0	0	0	0	0	0	0	0	0	0	0	0	0	0	0	0	0
4.86	0	0	0	0	0	0	0	0	0	0	0	0	0	0	0	0	0	0
4.865	0	0	0	0	0	0	0	0	0	0	0	0	0	0	0	0	0	0
4.87	0	0	0	0	0	0	0	0	0	0	0	0	0	0	0	0	0	0
4.875	0	0	0	0	0	0	0	0	0	0	0	0	0	0	0	0	0	0
4.88	0	0	0	0	0	0	0	0	0	0	0	0	0	0	0	0	0	0
4.885	0	0	0	0	0	0	0	0	0	0	0	0	0	0	0	0	0	0
4.89	0	0	0	0	0	0	0	0	0	0	0	0	0	0	0	0	0	0
4.895	0	0	0	0	0	0	0	0	0	0	0	0	0	0	0	0	0	0
4.9	0	0	0	0	0	0	0	0	0	0	0	0	0	0	0	0	0	0
4.905	0	0	0	0	0	0	0	0	0	0	0	0	0	0	0	0	0	0
4.91	0	0	0	0	0	0	0	0	0	0	0	0	0	0	0	0	0	0
4.915	0	0	0	0	0	0	0	0	0	0	0	0	0	0	0	0	0	0
4.92	0	0	0	0	0	0	0	0	0	0	0	0	0	0	0	0	0	0
4.925	0	0	0	0	0	0	0	0	0	0	0	0	0	0	0	0	0	0
4.93	0	0	0	0	0	0	0	0	0	-40.0146	23.0692	4.06273	1.30212	0	-0.14396	4.59613	-2.64976	-0.46665
4.935	0	0	0	0	0	0	0	0	0	-110.11	182.704	24.5317	1.05296	0	-0.38226	2.33962	-3.88209	-0.521249
4.94	0	0	0	0	0	0	0	0	0	-208.777	458.402	61.1677	1.00048	0	-0.375835	1.34398	-2.95091	-0.393761
4.945	0	0	0	0	0	0	0	0	0	-311.578	847.373	119.755	1.00864	0	-0.353896	-0.0639894	0.174026	0.0245943
4.95	0	0	0	0	0	0	0	0	0	-377.378	1307.92	185.645	1.01618	0	-0.335124	-1.2447	4.31391	0.61231
4.955	0	0	0	0	0	0	0	0	0	-388.175	1808.52	216.468	1.02061	0	-0.318832	0.120345	-0.560689	-0.0671107
4.96	0	0	0	0	0	0	0	0	0	-383.213	2315.33	170.454	1.01383	0	-0.306235	3.6304	-21.9345	-1.61481
4.965	0	0	0	0	0	0	0	0	0	-396.029	2747.84	27.9385	1.00056	0	-0.298326	6.85374	-47.5546	-0.483508
4.97	0	0	0	0	0	0	0	0	0	-424.199	3025.61	-184.606	0.989465	0	-0.295019	7.87888	-56.1962	3.4288
4.975	0	0	0	0	0	0	0	0	0	-473.401	3144.29	-394.375	0.977365	0	-0.295729	5.36002	-35.6008	4.46526
4.98	0	0	0	0	0	0	0	0	0	-522.232	3161.25	-521.509	0.960677	0	-0.29892	-0.348959	2.11237	-0.348475
4.985	0	0	0	0	0	0	0	0	0	-527.39	3140.91	-521.807	0.938173	0	-0.301174	-4.50473	26.8283	-4.45705
4.99	0	0	0	0	0	0	0	0	0	-476.763	3121.03	-413.823	0.906458	0	-0.300476	-3.45282	22.6031	-2.99699
4.995	0	0	0	0	0	0	0	0	0	-373.73	3100.05	-260.405	0.866742	0	-0.298227	0.388303	-3.22094	0.27056
5	0	0	0	0	0	0	0	0	0	-228.988	3062.05	-130.918	0.823946	0	-0.297566	1.92896	-25.7942	1.10284
5.005	0	0	0	0	0	0	0	0	0	-68.2456	2995.05	-58.2856	0.779963	0	-0.29915	0.561265	-24.6319	0.479353
5.01	0	0	0	0	0	0	0	0	0	82.9637	2895.18	-33.3144	0.737136	0	-0.300927	-0.255896	-8.93	0.102756
